<svg width="6" height="5" viewBox="0 0 6 5" fill="none" xmlns="http://www.w3.org/2000/svg">
<g id="COCO/Line/Check" clip-path="url(#clip0_954_10079)">
<path id="Vector" d="M0.825206 1.70226C0.996732 0.954662 1.56769 0.370932 2.29893 0.19557C2.82703 0.0689248 3.37663 0.0689247 3.90472 0.195569C4.63596 0.370932 5.20692 0.954663 5.37845 1.70226C5.50232 2.24217 5.50232 2.80405 5.37845 3.34396C5.20692 4.09156 4.63596 4.67529 3.90472 4.85065C3.37663 4.9773 2.82703 4.97729 2.29894 4.85065C1.56769 4.67529 0.996732 4.09156 0.825206 3.34396C0.701331 2.80405 0.701331 2.24217 0.825206 1.70226Z" fill="#3DA568"/>
<path id="Line" d="M2.33318 2.54467L2.85974 3.08301L3.91286 2.00633" stroke="white" stroke-width="0.399362" stroke-linecap="round" stroke-linejoin="round"/>
</g>
<defs>
<clipPath id="clip0_954_10079">
<rect width="4.73905" height="4.84505" fill="white" transform="translate(0.732056 0.100586)"/>
</clipPath>
</defs>
</svg>
